<svg xmlns="http://www.w3.org/2000/svg" style="display:none">
  <symbol id="database" viewBox="0 0 24 24">
    <path fill="currentColor" d="M12 3c-5 0-9 1.79-9 4v10c0 2.21 4 4 9 4s9-1.79 9-4V7c0-2.21-4-4-9-4zm0 2c4.42 0 7 .99 7 2s-2.58 2-7 2-7-.99-7-2 2.58-2 7-2zm0 14c-4.42 0-7-.99-7-2V9c1.52 1.03 4.39 1.7 7 1.7s5.48-.67 7-1.7v8c0 1.01-2.58 2-7 2z"/>
  </symbol>
  <symbol id="person" viewBox="0 0 24 24">
    <path fill="currentColor" d="M12 12a4 4 0 1 0-4-4 4 4 0 0 0 4 4zm0 2c-4.41 0-8 2-8 4.5V21h16v-2.5c0-2.5-3.59-4.5-8-4.5z"/>
  </symbol>
  <symbol id="lock" viewBox="0 0 24 24">
    <path fill="currentColor" d="M17 9h-1V7a4 4 0 0 0-8 0v2H7a2 2 0 0 0-2 2v8a2 2 0 0 0 2 2h10a2 2 0 0 0 2-2v-8a2 2 0 0 0-2-2zm-7-2a2 2 0 0 1 4 0v2h-4zm7 12H7v-8h10z"/>
  </symbol>
  <symbol id="badge" viewBox="0 0 24 24">
    <path fill="currentColor" d="M7 3h10a2 2 0 0 1 2 2v14l-4-2-4 2-4-2-4 2V5a2 2 0 0 1 2-2zm0 4h10V5H7z"/>
  </symbol>
  <symbol id="deployed_code" viewBox="0 0 24 24">
    <path fill="currentColor" d="M12 2 3 7v10l9 5 9-5V7zm7 14-7 4-7-4V8l7 4 7-4z"/>
  </symbol>
  <symbol id="code" viewBox="0 0 24 24">
    <path fill="currentColor" d="m8.5 16.5-5-4.5 5-4.5 1.4 1.6L6.8 12l3.1 2.9zM15.5 16.5l-1.4-1.6 3.1-2.9-3.1-2.9 1.4-1.6 5 4.5z"/>
  </symbol>
  <symbol id="key" viewBox="0 0 24 24">
    <path fill="currentColor" d="M14 3a7 7 0 1 0 4.9 12H22v-2h-2v-2h-2v-2h-2.1A7 7 0 0 0 14 3zm0 4a3 3 0 1 1-3 3 3 3 0 0 1 3-3z"/>
  </symbol>
  <symbol id="logout" viewBox="0 0 24 24">
    <path fill="currentColor" d="M10 3h7a2 2 0 0 1 2 2v4h-2V5h-7zM5 12l4-4v3h7v2H9v3zM10 21h7a2 2 0 0 0 2-2v-4h-2v4h-7z"/>
  </symbol>
  <symbol id="touch_app" viewBox="0 0 24 24">
    <path fill="currentColor" d="M9 11a2 2 0 0 1 4 0v4.59l1.3 1.3a2 2 0 0 1 0 2.83l-.5.5a2 2 0 0 1-2.83 0l-2.47-2.47A4 4 0 0 1 7 15V9a2 2 0 0 1 2-2z"/>
  </symbol>
</svg>
